<?xml version="1.0" standalone="no"?><!DOCTYPE svg PUBLIC "-//W3C//DTD SVG 1.1//EN" "http://www.w3.org/Graphics/SVG/1.1/DTD/svg11.dtd"><svg height="1024" node-id="1" sillyvg="true" template-height="1024" template-width="1024" version="1.1" viewBox="0 0 1024 1024" width="1024" xmlns="http://www.w3.org/2000/svg" xmlns:xlink="http://www.w3.org/1999/xlink"><defs node-id="23"></defs><path d="M 507.30 148.20 L 512.90 148.10 L 518.10 148.50 L 523.00 149.30 L 527.70 150.70 L 532.20 152.50 L 536.70 154.70 L 541.20 157.50 L 545.60 160.80 L 549.60 165.10 L 551.70 166.80 L 557.80 169.70 L 576.70 177.70 L 582.80 180.90 L 594.60 188.00 L 603.10 193.90 L 611.40 200.20 L 627.30 213.50 L 646.10 213.00 L 651.00 202.60 L 674.80 212.40 L 682.00 214.40 L 686.60 214.90 L 691.60 215.20 L 784.20 216.40 L 793.70 217.10 L 798.30 218.00 L 801.30 218.90 L 806.70 221.80 L 809.20 223.80 L 812.40 227.10 L 814.80 230.40 L 816.50 233.90 L 817.80 237.60 L 818.70 241.30 L 819.20 245.30 L 819.40 251.20 L 819.20 269.70 L 866.30 287.90 L 876.00 292.20 L 873.30 302.30 L 869.30 313.80 L 861.10 335.60 L 829.20 423.70 L 822.30 441.40 L 819.00 450.90 L 816.90 459.00 L 816.30 466.80 L 816.20 502.90 L 823.60 507.60 L 846.70 520.80 L 854.10 525.50 L 861.20 530.60 L 850.90 549.70 L 820.70 601.00 L 819.10 604.50 L 818.00 607.70 L 817.20 614.70 L 817.10 624.30 L 817.50 641.80 L 817.60 785.90 L 817.40 791.60 L 816.80 797.20 L 814.90 805.40 L 811.80 812.90 L 809.70 816.40 L 807.20 819.90 L 804.30 823.10 L 801.20 826.00 L 794.80 830.50 L 790.10 832.80 L 785.30 834.70 L 780.30 836.10 L 775.10 837.00 L 764.40 838.10 L 756.10 838.30 L 731.30 837.70 L 723.20 837.90 L 714.90 838.50 L 698.30 867.70 L 692.50 877.20 L 682.60 872.00 L 644.70 848.60 L 633.10 841.00 L 630.00 839.50 L 627.20 838.50 L 623.70 838.00 L 619.50 837.70 L 602.80 838.00 L 302.20 838.10 L 275.80 837.80 L 237.20 836.80 L 225.00 836.20 L 211.50 834.90 L 202.60 832.80 L 198.50 831.10 L 195.40 829.30 L 192.60 827.30 L 190.10 824.90 L 185.90 819.40 L 184.20 816.40 L 182.00 811.60 L 180.30 806.60 L 178.60 800.20 L 177.20 793.40 L 176.20 786.20 L 175.20 775.20 L 174.70 763.90 L 175.00 720.30 L 175.00 641.40 L 175.40 618.40 L 174.80 607.80 L 174.00 603.50 L 172.70 598.90 L 148.20 532.80 L 176.00 522.30 L 175.70 512.60 L 177.50 434.10 L 178.60 340.40 L 179.70 283.00 L 179.70 255.80 L 180.70 242.40 L 176.00 234.20 L 175.70 232.90 L 175.80 231.60 L 178.10 229.80 L 183.20 226.80 L 189.30 219.60 L 192.80 216.50 L 195.50 215.20 L 198.30 214.30 L 207.00 212.20 L 209.80 211.10 L 224.30 203.40 L 260.70 181.90 L 268.80 177.80 L 274.00 182.90 L 278.70 188.50 L 282.20 184.30 L 284.80 181.60 L 291.00 177.00 L 297.90 173.40 L 301.50 172.00 L 308.80 170.40 L 313.30 170.00 L 317.70 170.20 L 322.00 170.70 L 326.30 171.70 L 330.50 173.20 L 334.50 175.00 L 338.30 177.20 L 341.90 179.80 L 345.30 182.70 L 348.10 185.70 L 352.50 192.20 L 355.70 199.40 L 357.60 207.20 L 358.20 211.50 L 367.90 211.80 L 396.80 211.50 L 407.40 201.80 L 413.20 197.30 L 422.20 190.90 L 431.50 185.00 L 441.10 179.60 L 450.70 174.80 L 468.50 167.20 L 470.70 165.40 L 474.70 161.00 L 482.00 155.80 L 490.00 152.00 L 495.50 150.20 L 501.30 148.90 L 507.30 148.20 Z M 322.20 255.40 L 332.40 269.90 L 337.30 277.40 L 341.60 285.00 L 303.80 300.50 L 238.40 329.00 L 230.00 331.70 L 203.30 283.40 L 192.30 264.20 L 189.00 257.70 L 188.60 318.80 L 187.80 379.90 L 186.50 440.90 L 185.70 506.70 L 185.00 519.10 L 200.20 513.20 L 246.00 496.40 L 265.80 488.60 L 275.50 485.40 L 304.30 569.00 L 367.50 747.40 L 374.90 769.60 L 371.30 771.70 L 360.70 776.20 L 332.60 786.30 L 279.80 806.50 L 253.20 815.60 L 248.10 804.50 L 203.00 682.80 L 189.10 644.50 L 184.00 632.00 L 184.40 641.50 L 184.00 741.50 L 184.40 771.90 L 185.80 787.00 L 187.10 795.10 L 189.20 803.90 L 190.70 808.20 L 192.50 812.20 L 194.00 814.70 L 197.50 818.80 L 200.00 820.80 L 202.80 822.30 L 205.90 823.50 L 212.20 825.00 L 224.00 826.20 L 278.90 827.50 L 307.80 827.90 L 578.50 827.00 L 607.60 827.10 L 611.30 827.40 L 611.40 827.60 L 611.70 827.20 L 607.30 823.70 L 601.70 819.90 L 590.70 813.80 L 598.20 794.50 L 622.20 737.20 L 628.90 719.90 L 632.80 710.60 L 636.50 704.00 L 638.00 703.60 L 640.80 699.80 L 667.00 653.30 L 734.60 529.90 L 761.20 480.50 L 765.60 474.20 L 805.50 496.60 L 805.50 483.50 L 777.80 471.80 L 699.00 440.00 L 671.70 474.50 L 662.20 485.70 L 632.70 517.30 L 631.00 527.60 L 629.80 532.20 L 628.10 536.60 L 626.10 540.70 L 623.60 544.70 L 620.70 548.40 L 617.20 552.10 L 613.10 555.70 L 606.50 560.40 L 603.20 562.20 L 597.80 564.50 L 592.00 566.20 L 603.00 601.70 L 607.60 619.40 L 580.20 619.70 L 497.80 619.10 L 420.90 619.30 L 422.80 607.50 L 432.60 564.10 L 428.10 562.00 L 420.80 557.60 L 417.70 555.10 L 414.90 552.40 L 412.40 549.30 L 408.10 542.00 L 399.60 521.00 L 397.20 515.60 L 392.70 514.50 L 384.80 511.60 L 377.40 507.40 L 373.80 504.60 L 368.60 499.80 L 363.50 494.40 L 358.70 488.60 L 354.10 482.50 L 337.10 458.00 L 319.90 433.90 L 303.30 409.50 L 300.60 404.90 L 298.40 400.50 L 296.70 396.20 L 295.40 391.70 L 294.60 387.20 L 294.20 382.50 L 294.30 377.90 L 294.80 373.00 L 295.70 367.70 L 296.90 363.10 L 300.00 354.10 L 305.80 342.50 L 310.00 335.30 L 318.90 321.20 L 358.30 259.70 L 371.90 240.00 L 381.80 227.50 L 387.20 221.50 L 357.80 221.60 L 355.80 226.60 L 353.40 231.20 L 350.80 235.50 L 347.80 239.50 L 344.40 243.20 L 340.60 246.50 L 336.30 249.50 L 331.60 252.10 L 322.20 255.40 Z M 317.20 683.10 L 247.20 707.60 L 235.40 711.90 L 220.40 718.50 L 254.90 811.10 L 349.00 776.20 L 370.40 767.50 L 338.40 677.20 L 317.20 683.10 Z M 180.00 233.60 L 187.20 246.60 L 213.10 291.70 L 222.10 308.10 L 230.60 324.60 L 234.90 322.50 L 247.40 315.10 L 281.60 296.70 L 298.70 287.50 L 316.00 278.80 L 274.00 199.10 L 269.30 188.30 L 266.40 183.70 L 256.90 188.40 L 238.10 199.70 L 194.40 224.80 L 180.00 233.60 Z M 733.60 743.60 L 730.30 752.70 L 727.40 761.90 L 745.40 771.80 L 751.10 775.50 L 746.60 784.20 L 721.60 826.50 L 747.00 827.00 L 760.30 826.80 L 771.70 825.90 L 779.00 824.10 L 786.00 821.00 L 792.30 816.80 L 795.20 814.40 L 800.20 808.80 L 802.50 805.20 L 804.50 801.20 L 806.10 797.10 L 807.30 790.20 L 807.90 764.40 L 808.00 702.70 L 807.60 658.50 L 808.10 636.00 L 807.40 625.40 L 802.70 633.10 L 794.30 649.80 L 764.90 704.10 L 753.90 723.60 L 751.90 726.30 L 751.20 726.60 L 749.80 726.50 L 748.00 725.90 L 741.60 721.90 L 733.60 743.60 Z M 281.10 192.00 L 293.30 211.50 L 306.60 211.90 L 354.30 211.40 L 353.10 205.30 L 351.30 199.70 L 349.80 196.10 L 345.90 189.60 L 343.50 186.60 L 340.60 183.80 L 337.30 181.10 L 333.90 179.10 L 326.60 175.80 L 322.70 174.70 L 314.90 173.70 L 310.30 174.20 L 305.90 175.10 L 297.60 178.00 L 293.80 179.90 L 290.20 182.40 L 286.80 185.30 L 283.60 188.80 L 281.10 192.00 Z M 334.90 282.80 L 322.30 262.40 L 298.00 227.40 L 280.40 197.70 L 275.90 191.00 L 272.80 187.30 L 282.10 205.70 L 310.90 260.60 L 319.10 275.30 L 321.50 280.70 L 310.80 286.50 L 257.90 314.00 L 253.30 316.50 L 249.10 319.20 L 249.40 319.20 L 249.50 318.80 L 250.20 319.00 L 296.20 299.10 L 334.90 282.80 Z M 400.90 514.80 L 412.20 540.50 L 414.40 544.70 L 416.90 548.50 L 419.70 551.60 L 422.80 554.40 L 426.70 556.80 L 431.00 559.00 L 436.50 561.10 L 441.10 562.50 L 446.60 563.70 L 449.20 563.80 L 451.20 563.40 L 451.70 563.00 L 451.80 562.30 L 450.80 560.50 L 449.10 558.60 L 436.50 548.10 L 429.70 540.70 L 425.50 534.10 L 423.90 530.50 L 422.70 526.60 L 421.90 522.50 L 421.70 518.60 L 422.10 516.70 L 423.10 515.00 L 425.40 514.30 L 428.40 515.00 L 431.10 516.30 L 446.20 524.80 L 450.70 526.20 L 453.50 526.00 L 451.60 523.00 L 440.70 511.50 L 424.80 496.60 L 422.10 494.60 L 418.80 500.90 L 414.80 505.80 L 409.90 509.90 L 405.70 512.40 L 400.90 514.80 Z M 445.20 510.50 L 450.30 515.00 L 455.20 520.40 L 457.20 524.50 L 457.70 527.60 L 456.60 529.80 L 454.60 530.50 L 452.50 530.70 L 448.20 530.00 L 441.60 527.20 L 439.30 540.90 L 439.50 544.10 L 441.20 546.50 L 449.80 553.70 L 454.00 558.10 L 455.50 561.00 L 455.60 563.50 L 454.60 565.60 L 453.80 566.40 L 452.30 567.20 L 450.50 567.60 L 446.70 567.60 L 436.20 565.00 L 425.30 615.50 L 442.40 615.80 L 493.80 615.40 L 602.10 615.50 L 595.50 590.90 L 587.10 564.00 L 579.00 566.90 L 574.10 567.50 L 572.30 567.30 L 569.70 566.40 L 568.40 565.10 L 568.00 564.20 L 567.80 562.40 L 568.20 560.60 L 569.90 557.40 L 573.00 554.00 L 576.50 550.90 L 571.80 541.10 L 567.70 531.30 L 565.30 524.60 L 563.40 517.70 L 561.90 510.60 L 560.30 508.00 L 559.40 505.70 L 558.40 498.20 L 556.80 491.60 L 556.80 489.50 L 557.40 487.70 L 558.30 486.50 L 559.40 485.60 L 560.80 485.10 L 562.20 485.00 L 564.80 485.50 L 566.00 486.20 L 567.70 487.90 L 569.10 489.90 L 573.60 499.80 L 584.60 520.70 L 606.20 476.20 L 605.40 470.80 L 604.20 465.40 L 595.40 464.90 L 559.00 464.80 L 455.50 463.50 L 450.10 487.00 L 445.20 510.50 Z M 353.30 221.50 L 338.10 220.90 L 299.30 221.60 L 302.60 226.80 L 320.30 252.40 L 329.60 248.50 L 333.90 246.10 L 338.10 243.10 L 341.70 240.00 L 344.80 236.80 L 347.40 233.50 L 349.60 230.00 L 351.60 226.00 L 353.30 221.50 Z" fill="#000000" fill-rule="nonzero" node-id="25" stroke="none" target-height="729.1" target-width="727.8" target-x="148.2" target-y="148.1"></path><path d="M 515.80 682.00 L 526.70 688.60 L 547.60 703.40 L 589.20 730.90 L 585.20 737.10 L 539.60 800.30 L 538.50 800.60 L 536.70 800.10 L 531.90 797.40 L 527.20 794.20 L 468.30 753.30 L 472.10 746.70 L 476.40 740.10 L 515.80 682.00 Z" fill="#000000" fill-rule="nonzero" node-id="27" stroke="none" target-height="118.599976" target-width="120.900024" target-x="468.3" target-y="682"></path><path d="M 516.60 687.30 L 526.10 692.80 L 544.30 705.60 L 584.00 732.50 L 574.40 745.10 L 565.30 758.00 L 538.30 795.20 L 537.20 795.90 L 529.90 791.40 L 522.70 786.60 L 473.80 751.90 L 495.50 719.80 L 516.60 687.30 Z" fill="#fefefe" fill-rule="nonzero" node-id="29" stroke="none" target-height="108.60004" target-width="110.20001" target-x="473.8" target-y="687.3"></path><path d="M 429.60 311.50 L 437.80 320.20 L 442.40 324.40 L 447.30 328.20 L 450.70 330.40 L 454.20 332.20 L 457.90 333.60 L 461.40 339.20 L 465.30 344.20 L 469.40 348.80 L 476.50 354.80 L 484.90 360.00 L 492.90 363.40 L 501.30 365.60 L 510.00 366.50 L 518.70 366.10 L 527.30 364.50 L 536.00 361.40 L 541.40 358.70 L 546.40 355.40 L 551.00 351.70 L 555.20 347.50 L 559.10 342.90 L 562.50 337.90 L 565.60 332.50 L 570.60 330.40 L 575.20 327.90 L 579.40 325.10 L 587.20 318.30 L 590.90 314.30 L 595.20 318.50 L 599.20 323.00 L 595.70 330.20 L 586.90 352.50 L 576.50 375.90 L 574.30 381.90 L 572.70 387.90 L 574.00 391.30 L 575.60 394.50 L 580.30 396.90 L 615.30 410.60 L 635.50 418.00 L 619.10 442.90 L 616.30 448.20 L 609.80 465.70 L 608.70 467.90 L 607.60 463.10 L 607.00 461.80 L 603.90 461.30 L 589.70 461.10 L 570.70 461.20 L 482.70 460.00 L 463.40 459.30 L 456.00 459.60 L 453.10 460.10 L 451.30 464.10 L 449.20 472.00 L 441.70 506.90 L 424.30 490.20 L 422.30 481.00 L 419.60 472.00 L 416.70 465.10 L 413.30 458.40 L 405.80 445.50 L 381.70 407.60 L 371.70 393.00 L 368.90 387.90 L 389.40 362.70 L 419.80 324.40 L 429.60 311.50 Z" fill="#fefefe" fill-rule="nonzero" node-id="31" stroke="none" target-height="195.4" target-width="266.6" target-x="368.9" target-y="311.5"></path><path d="M 153.20 535.30 L 172.00 528.00 L 228.90 507.00 L 258.10 495.80 L 272.90 491.00 L 281.70 515.50 L 331.30 657.70 L 338.40 677.20 L 317.20 683.10 L 300.00 689.10 L 235.40 711.90 L 220.40 718.50 L 153.20 535.30 Z" fill="#fefefe" fill-rule="nonzero" node-id="33" stroke="none" target-height="227.5" target-width="185.2" target-x="153.2" target-y="491"></path><path d="M 235.40 711.90 L 234.50 710.10 L 235.00 708.50 L 252.10 701.70 L 282.50 690.80 L 312.80 680.80 L 314.50 680.40 L 315.50 680.90 L 317.20 683.10 L 235.40 711.90 Z" fill="#000000" fill-rule="nonzero" node-id="35" stroke="none" target-height="31.5" target-width="82.70001" target-x="234.5" target-y="680.4"></path><path d="M 281.10 585.00 L 283.20 585.30 L 284.30 586.20 L 284.00 587.00 L 278.50 589.90 L 268.10 594.00 L 254.60 598.90 L 206.20 615.50 L 204.20 615.50 L 203.60 615.00 L 202.90 613.40 L 203.30 612.80 L 205.20 611.60 L 211.90 608.90 L 281.10 585.00 Z" fill="#000000" fill-rule="nonzero" node-id="37" stroke="none" target-height="30.5" target-width="81.399994" target-x="202.9" target-y="585"></path><path d="M 463.50 173.50 L 463.60 175.10 L 460.70 183.30 L 459.70 187.70 L 459.20 192.20 L 459.10 197.00 L 459.50 201.50 L 460.30 206.00 L 461.60 210.40 L 463.30 214.60 L 465.40 218.70 L 467.90 222.60 L 470.80 226.20 L 473.90 229.50 L 477.40 232.50 L 481.10 235.10 L 485.10 237.30 L 489.30 239.00 L 499.30 241.10 L 500.50 241.70 L 500.50 245.00 L 500.00 245.90 L 498.80 246.30 L 487.10 248.90 L 482.50 250.70 L 478.20 252.90 L 474.20 255.50 L 470.30 258.40 L 466.80 261.70 L 463.60 265.30 L 458.00 273.20 L 455.70 277.60 L 452.40 285.90 L 450.70 294.40 L 450.30 300.10 L 450.50 305.90 L 451.10 311.60 L 453.50 323.00 L 455.30 328.70 L 450.10 325.40 L 445.30 321.70 L 440.70 317.50 L 436.70 313.00 L 432.30 307.20 L 430.70 305.60 L 429.10 306.20 L 427.80 307.40 L 423.70 312.60 L 382.80 364.50 L 364.00 387.60 L 406.80 455.40 L 403.30 460.10 L 395.50 468.80 L 391.80 472.00 L 387.80 474.90 L 381.40 478.50 L 376.90 480.30 L 369.90 482.40 L 365.00 483.20 L 360.20 483.60 L 356.70 478.40 L 331.20 443.20 L 309.00 411.30 L 305.20 405.20 L 302.00 399.00 L 300.20 394.20 L 299.00 389.40 L 298.40 384.70 L 298.20 380.00 L 298.50 375.20 L 300.30 365.70 L 303.40 356.30 L 306.00 350.50 L 309.10 344.90 L 326.30 317.20 L 363.80 259.10 L 372.00 247.30 L 383.30 232.40 L 395.30 218.90 L 401.90 212.50 L 408.90 206.40 L 416.10 200.60 L 424.20 194.80 L 433.00 189.20 L 442.00 184.00 L 452.20 178.80 L 463.50 173.50 Z" fill="#fefefe" fill-rule="nonzero" node-id="39" stroke="none" target-height="310.1" target-width="202.29999" target-x="298.2" target-y="173.5"></path><path d="M 766.60 479.50 L 790.80 492.80 L 835.50 519.00 L 856.10 531.90 L 806.00 619.70 L 764.60 696.40 L 750.60 721.80 L 749.80 722.20 L 742.80 718.50 L 728.20 709.50 L 695.00 689.90 L 662.30 669.50 L 731.10 544.70 L 766.60 479.50 Z" fill="#fefefe" fill-rule="nonzero" node-id="41" stroke="none" target-height="242.70001" target-width="193.79999" target-x="662.3" target-y="479.5"></path><path d="M 726.70 589.20 L 734.90 593.00 L 752.10 603.00 L 775.70 616.10 L 786.80 623.10 L 787.10 624.80 L 786.60 626.70 L 782.40 624.80 L 777.90 622.50 L 760.40 612.10 L 737.10 599.30 L 726.50 592.50 L 726.30 590.90 L 726.70 589.20 Z" fill="#000000" fill-rule="nonzero" node-id="43" stroke="none" target-height="37.5" target-width="60.799988" target-x="726.3" target-y="589.2"></path><path d="M 555.90 172.90 L 570.40 179.00 L 577.50 182.50 L 591.10 190.40 L 597.70 194.70 L 610.40 204.10 L 618.90 211.40 L 627.20 219.20 L 635.20 227.40 L 654.60 248.80 L 666.10 262.20 L 688.20 289.80 L 698.80 303.90 L 720.60 334.10 L 727.70 345.10 L 732.10 354.10 L 734.10 361.30 L 734.70 364.90 L 734.90 369.50 L 734.70 373.90 L 734.10 378.20 L 731.60 386.60 L 729.80 390.70 L 726.30 397.20 L 722.30 403.30 L 718.00 409.20 L 704.30 426.20 L 666.70 474.30 L 654.60 471.10 L 646.20 467.00 L 638.40 461.60 L 631.60 455.10 L 628.60 451.50 L 623.30 443.60 L 663.80 383.50 L 609.10 327.30 L 591.10 308.30 L 578.20 320.50 L 572.30 324.80 L 568.00 327.40 L 569.70 321.00 L 570.70 315.00 L 571.10 309.00 L 571.00 303.00 L 570.40 296.90 L 569.20 290.50 L 573.70 286.70 L 577.80 282.50 L 582.60 276.20 L 585.70 270.80 L 587.40 266.50 L 589.20 259.90 L 589.90 255.30 L 590.00 248.40 L 589.00 241.60 L 587.80 237.10 L 586.10 232.50 L 584.00 228.30 L 581.60 224.60 L 578.80 221.00 L 575.70 217.80 L 572.30 214.80 L 564.80 209.50 L 560.50 207.20 L 561.30 202.70 L 561.70 198.30 L 561.60 194.00 L 561.10 189.70 L 559.90 184.00 L 558.10 178.50 L 555.90 172.90 Z" fill="#fefefe" fill-rule="nonzero" node-id="45" stroke="none" target-height="301.4" target-width="179" target-x="555.9" target-y="172.9"></path><path d="M 638.60 708.70 L 645.90 711.20 L 653.20 714.20 L 729.00 745.70 L 709.20 800.30 L 690.40 849.80 L 689.50 850.50 L 687.80 850.00 L 642.40 830.10 L 611.70 817.80 L 596.20 812.10 L 602.60 794.60 L 617.20 759.90 L 631.00 725.40 L 638.60 708.70 Z" fill="#fefefe" fill-rule="nonzero" node-id="47" stroke="none" target-height="141.79999" target-width="132.79999" target-x="596.2" target-y="708.7"></path><path d="M 652.10 207.30 L 685.70 221.20 L 786.90 261.40 L 841.10 282.70 L 863.80 291.20 L 871.00 294.50 L 869.50 300.60 L 867.50 306.60 L 819.60 438.40 L 812.20 458.40 L 804.20 478.20 L 701.40 436.70 L 709.40 427.20 L 754.10 444.50 L 768.50 450.60 L 778.30 454.00 L 783.20 455.10 L 786.10 455.50 L 788.90 455.40 L 791.70 454.90 L 794.50 454.10 L 796.90 452.80 L 799.00 451.30 L 800.80 449.50 L 803.10 446.40 L 804.80 442.80 L 808.70 433.00 L 826.70 381.80 L 848.00 325.10 L 851.20 314.50 L 851.60 311.80 L 851.50 309.20 L 851.10 306.60 L 850.20 304.00 L 848.50 301.10 L 846.20 298.30 L 843.50 295.90 L 840.70 294.00 L 832.50 290.00 L 803.90 279.50 L 757.70 261.00 L 673.60 228.10 L 669.80 226.90 L 666.00 226.30 L 663.50 226.30 L 661.00 226.80 L 658.50 227.70 L 656.50 228.90 L 653.40 231.90 L 651.80 234.70 L 650.50 237.80 L 643.40 229.80 L 648.10 218.70 L 652.10 207.30 Z" fill="#fefefe" fill-rule="nonzero" node-id="49" stroke="none" target-height="270.90002" target-width="227.59998" target-x="643.4" target-y="207.3"></path><path d="M 508.30 151.70 L 514.70 151.70 L 519.50 152.30 L 524.00 153.30 L 528.40 154.70 L 532.60 156.60 L 536.50 158.80 L 540.30 161.40 L 543.80 164.50 L 547.00 168.00 L 550.00 172.00 L 552.40 175.90 L 554.20 179.80 L 555.60 183.90 L 556.70 188.10 L 557.30 192.40 L 557.50 201.40 L 557.10 206.20 L 549.00 204.90 L 540.90 204.80 L 532.80 206.20 L 528.20 207.60 L 524.00 209.50 L 520.20 211.70 L 516.70 214.30 L 513.60 217.20 L 510.60 220.40 L 507.80 224.10 L 505.30 228.10 L 501.60 237.60 L 493.70 236.30 L 486.60 233.80 L 483.10 231.90 L 479.70 229.50 L 476.40 226.60 L 473.40 223.40 L 470.80 219.90 L 468.40 216.10 L 466.50 212.20 L 465.00 208.10 L 463.90 203.80 L 463.20 199.50 L 463.10 191.50 L 463.70 187.50 L 464.60 183.60 L 465.90 179.80 L 467.60 176.20 L 469.70 172.80 L 472.10 169.60 L 475.40 165.90 L 478.90 162.70 L 482.40 160.10 L 486.30 157.80 L 490.30 156.00 L 498.80 153.30 L 508.30 151.70 Z" fill="#fefefe" fill-rule="nonzero" node-id="51" stroke="none" target-height="85.90001" target-width="94.399994" target-x="463.1" target-y="151.7"></path><path d="M 657.20 670.50 L 664.00 675.40 L 671.30 680.00 L 741.60 721.90 L 733.60 743.60 L 723.20 738.90 L 651.10 709.80 L 638.00 703.60 L 640.80 699.80 L 645.10 692.50 L 657.20 670.50 Z" fill="#fefefe" fill-rule="nonzero" node-id="53" stroke="none" target-height="73.099976" target-width="103.599976" target-x="638" target-y="670.5"></path><path d="M 726.20 765.60 L 731.20 768.40 L 746.00 777.40 L 727.30 808.80 L 691.00 872.20 L 647.60 846.00 L 610.30 822.00 L 620.70 825.50 L 641.10 833.60 L 688.60 854.60 L 690.30 855.10 L 692.10 855.10 L 693.40 853.50 L 694.20 851.60 L 699.20 837.00 L 726.20 765.60 Z" fill="#fefefe" fill-rule="nonzero" node-id="55" stroke="none" target-height="106.60004" target-width="135.70001" target-x="610.3" target-y="765.6"></path><path d="M 608.20 480.80 L 609.30 482.10 L 612.00 487.00 L 614.50 490.20 L 617.20 492.90 L 620.00 495.10 L 626.30 498.40 L 629.80 499.60 L 640.80 502.30 L 630.40 514.40 L 628.50 516.90 L 625.10 523.30 L 619.60 536.70 L 617.00 541.30 L 614.20 545.40 L 611.00 549.20 L 607.60 552.60 L 603.80 555.60 L 599.60 558.30 L 595.20 560.50 L 590.30 562.40 L 600.30 555.30 L 604.10 552.20 L 607.80 548.30 L 611.20 543.90 L 614.00 539.20 L 615.50 535.90 L 616.60 532.70 L 617.30 528.40 L 616.70 527.40 L 616.00 527.50 L 615.10 528.00 L 613.00 530.90 L 609.10 539.70 L 607.10 542.80 L 602.40 548.40 L 597.00 553.30 L 590.90 557.40 L 582.80 561.30 L 577.20 563.10 L 575.40 563.40 L 572.10 563.00 L 571.90 562.30 L 573.70 559.50 L 575.90 557.10 L 584.90 549.00 L 588.40 544.80 L 594.50 535.70 L 600.50 523.70 L 601.10 521.30 L 601.10 520.50 L 600.40 519.90 L 599.00 520.00 L 597.50 521.00 L 596.30 522.40 L 593.90 528.00 L 589.20 537.10 L 586.00 529.00 L 608.20 480.80 Z" fill="#fefefe" fill-rule="nonzero" node-id="57" stroke="none" target-height="82.60004" target-width="68.89996" target-x="571.9" target-y="480.8"></path><path d="M 708.70 225.90 L 722.00 225.90 L 762.20 226.90 L 783.90 227.10 L 794.10 228.10 L 798.60 229.60 L 802.50 232.20 L 804.50 234.20 L 806.00 236.50 L 807.20 239.10 L 808.30 243.30 L 809.00 247.80 L 809.50 265.70 L 740.10 238.80 L 708.70 225.90 Z" fill="#fefefe" fill-rule="nonzero" node-id="59" stroke="none" target-height="39.80002" target-width="100.79999" target-x="708.7" target-y="225.9"></path><path d="M 601.90 325.90 L 611.30 334.70 L 599.40 362.00 L 596.90 368.60 L 596.20 372.00 L 595.80 375.40 L 596.40 379.80 L 597.20 382.10 L 598.80 385.00 L 600.90 387.40 L 603.40 389.50 L 605.90 391.00 L 618.00 396.50 L 643.70 406.10 L 640.00 411.80 L 637.80 414.00 L 636.70 414.30 L 617.70 407.30 L 593.20 397.90 L 583.30 393.70 L 577.70 390.70 L 577.30 389.10 L 577.50 387.30 L 580.40 378.10 L 595.00 343.50 L 601.90 325.90 Z" fill="#fefefe" fill-rule="nonzero" node-id="61" stroke="none" target-height="88.399994" target-width="66.400024" target-x="577.3" target-y="325.9"></path><path d="M 426.20 519.30 L 430.00 520.40 L 437.60 524.80 L 436.70 534.10 L 435.90 534.20 L 428.70 524.40 L 427.20 521.80 L 426.20 519.30 Z" fill="#fefefe" fill-rule="nonzero" node-id="63" stroke="none" target-height="14.900024" target-width="11.399994" target-x="426.2" target-y="519.3"></path></svg>